<?xml version="1.0" encoding="UTF-8"?>
<!DOCTYPE svg PUBLIC "-//W3C//DTD SVG 1.1//EN" "http://www.w3.org/Graphics/SVG/1.1/DTD/svg11.dtd">
<!-- Creator: CorelDRAW -->
<svg xmlns="http://www.w3.org/2000/svg" xml:space="preserve" width="210mm" height="297mm" version="1.1" style="shape-rendering:geometricPrecision; text-rendering:geometricPrecision; image-rendering:optimizeQuality; fill-rule:evenodd; clip-rule:evenodd"
viewBox="0 0 21000 29700"
 xmlns:xlink="http://www.w3.org/1999/xlink"
 xmlns:xodm="http://www.corel.com/coreldraw/odm/2003">
 <defs>
  <style type="text/css">
   <![CDATA[
    .fil1 {fill:none}
    .fil0 {fill:#201E1E}
   ]]>
  </style>
   <clipPath id="id0">
    <path d="M10492.87 6613.52c4549.18,0 8237.01,3687.83 8237.01,8237.01 0,4549.18 -3687.83,8237.01 -8237.01,8237.01 -4549.18,0 -8237.01,-3687.83 -8237.01,-8237.01 0,-4549.18 3687.83,-8237.01 8237.01,-8237.01z"/>
   </clipPath>
 </defs>
 <g id="Camada_x0020_1">
  <metadata id="CorelCorpID_0Corel-Layer"/>
  <g>
  </g>
  <g style="clip-path:url(#id0)">
   <g id="_1639633319920">
    <g>
     <path class="fil0" d="M9858.5 6129.05c-4597.24,351.89 -8470.8,4334.62 -8090.13,9381.23 132.39,1755.01 803.15,3388.12 1819.45,4691.72 415.62,533.13 352.02,457.91 779.2,862.41 444.08,420.49 174.7,245.81 863.66,776.53 205.39,158.2 418.09,306.44 653.72,453.96 2588.4,1620.43 5912.86,1732.01 8638.67,322.31 1398.82,-723.41 2558.59,-1830.14 3401.24,-3162.37 951.82,-1504.8 1434.4,-3374.02 1295.4,-5243.49 -340.45,-4579.02 -4350.4,-8465.84 -9361.21,-8082.3zm-4655.52 13926.18c320.39,-239.02 304.98,-401.95 958.15,-839.19 371.77,-248.86 751.94,-449.76 1211.21,-634.05 1899.55,-762.26 4312.78,-757.78 6218.99,-15.52 565.55,220.23 1294.11,621.44 1721.05,1026.15 158.52,150.27 306.53,314.94 473.21,462.8 973.19,-978.09 1636.49,-2172.31 1961.95,-3566.67 1067.56,-4573.52 -2464.67,-9070.25 -7253.26,-9070.23 -2218.27,0.01 -4473.14,1093.61 -5669.88,2627.69 -383.01,490.96 -793.41,1009.79 -1088.7,1698.95 -1149.7,2683.26 -834.83,5475.94 961.83,7757.91l505.45 552.16z"/>
     <path class="fil0" d="M10081.3 10445.99c-1666.35,224.66 -3079.9,1715.39 -2843.77,3654.57 203.55,1671.74 1738.58,3102.99 3704.5,2843.1 1652.28,-218.43 3040.43,-1735.63 2806.69,-3664.32 -199.71,-1647.92 -1757.16,-3090.9 -3667.42,-2833.35z"/>
    </g>
   </g>
  </g>
  <path class="fil1" d="M10492.87 6613.52c4549.18,0 8237.01,3687.83 8237.01,8237.01 0,4549.18 -3687.83,8237.01 -8237.01,8237.01 -4549.18,0 -8237.01,-3687.83 -8237.01,-8237.01 0,-4549.18 3687.83,-8237.01 8237.01,-8237.01z"/>
 </g>
</svg>
